<svg width="114" height="120" viewBox="0 0 114 120" fill="none" xmlns="http://www.w3.org/2000/svg">
<path d="M113.5 60C113.5 92.8854 88.1802 119.5 57 119.5C25.8198 119.5 0.5 92.8854 0.5 60C0.5 27.1146 25.8198 0.5 57 0.5C88.1802 0.5 113.5 27.1146 113.5 60Z" stroke="#5DA5E8"/>
<g clip-path="url(#clip0_37_2)">
<path d="M57 15C49.5979 15 43.2937 19.7193 40.974 26.3122H34.3333C28.0823 26.3122 23 31.385 23 37.6243V94.1852C23 100.425 28.0823 105.497 34.3333 105.497H79.6667C85.9177 105.497 91 100.425 91 94.1852V37.6243C91 31.385 85.9177 26.3122 79.6667 26.3122H73.026C70.7062 19.7193 64.4021 15 57 15ZM57 26.3122C58.5029 26.3122 59.9442 26.9081 61.0069 27.9688C62.0696 29.0295 62.6667 30.4682 62.6667 31.9683C62.6667 33.4683 62.0696 34.907 61.0069 35.9677C59.9442 37.0284 58.5029 37.6243 57 37.6243C55.4971 37.6243 54.0558 37.0284 52.9931 35.9677C51.9304 34.907 51.3333 33.4683 51.3333 31.9683C51.3333 30.4682 51.9304 29.0295 52.9931 27.9688C54.0558 26.9081 55.4971 26.3122 57 26.3122ZM35.75 63.0767C35.75 61.9517 36.1978 60.8727 36.9948 60.0771C37.7918 59.2816 38.8728 58.8347 40 58.8347C41.1272 58.8347 42.2082 59.2816 43.0052 60.0771C43.8022 60.8727 44.25 61.9517 44.25 63.0767C44.25 64.2018 43.8022 65.2808 43.0052 66.0763C42.2082 66.8719 41.1272 67.3188 40 67.3188C38.8728 67.3188 37.7918 66.8719 36.9948 66.0763C36.1978 65.2808 35.75 64.2018 35.75 63.0767ZM54.1667 60.2487H76.8333C78.3917 60.2487 79.6667 61.5213 79.6667 63.0767C79.6667 64.6322 78.3917 65.9048 76.8333 65.9048H54.1667C52.6083 65.9048 51.3333 64.6322 51.3333 63.0767C51.3333 61.5213 52.6083 60.2487 54.1667 60.2487ZM35.75 80.045C35.75 78.9199 36.1978 77.841 36.9948 77.0454C37.7918 76.2499 38.8728 75.8029 40 75.8029C41.1272 75.8029 42.2082 76.2499 43.0052 77.0454C43.8022 77.841 44.25 78.9199 44.25 80.045C44.25 81.1701 43.8022 82.2491 43.0052 83.0446C42.2082 83.8401 41.1272 84.2871 40 84.2871C38.8728 84.2871 37.7918 83.8401 36.9948 83.0446C36.1978 82.2491 35.75 81.1701 35.75 80.045ZM51.3333 80.045C51.3333 78.4896 52.6083 77.217 54.1667 77.217H76.8333C78.3917 77.217 79.6667 78.4896 79.6667 80.045C79.6667 81.6004 78.3917 82.873 76.8333 82.873H54.1667C52.6083 82.873 51.3333 81.6004 51.3333 80.045Z" fill="#5DA5E8"/>
</g>
<defs>
<clipPath id="clip0_37_2">
<rect width="68" height="89" fill="white" transform="translate(23 15)"/>
</clipPath>
</defs>
</svg>
