<svg width="114" height="120" viewBox="0 0 114 120" fill="none" xmlns="http://www.w3.org/2000/svg">
<path d="M113.5 60C113.5 92.8854 88.1802 119.5 57 119.5C25.8198 119.5 0.5 92.8854 0.5 60C0.5 27.1146 25.8198 0.5 57 0.5C88.1802 0.5 113.5 27.1146 113.5 60Z" stroke="#5DA5E8"/>
<g clip-path="url(#clip0_37_4)">
<path d="M78.25 52.875C78.25 59.6883 76.2711 65.982 72.9375 71.0883L89.7516 89.8953C91.4117 91.7508 91.4117 94.7641 89.7516 96.6195C88.0914 98.475 85.3953 98.475 83.7352 96.6195L66.9211 77.8125C62.3523 81.5531 56.7211 83.75 50.625 83.75C35.3648 83.75 23 69.9305 23 52.875C23 35.8195 35.3648 22 50.625 22C65.8852 22 78.25 35.8195 78.25 52.875ZM50.625 74.25C61.1836 74.25 69.75 64.6758 69.75 52.875C69.75 41.0742 61.1836 31.5 50.625 31.5C40.0664 31.5 31.5 41.0742 31.5 52.875C31.5 64.6758 40.0664 74.25 50.625 74.25Z" fill="#5DA5E8"/>
</g>
<defs>
<clipPath id="clip0_37_4">
<rect width="68" height="76" fill="white" transform="translate(23 22)"/>
</clipPath>
</defs>
</svg>
