<svg width="114" height="120" viewBox="0 0 114 120" fill="none" xmlns="http://www.w3.org/2000/svg">
<path d="M113.5 60C113.5 92.8854 88.1802 119.5 57 119.5C25.8198 119.5 0.5 92.8854 0.5 60C0.5 27.1146 25.8198 0.5 57 0.5C88.1802 0.5 113.5 27.1146 113.5 60Z" stroke="#5DA5E8"/>
<path d="M31.5 26.75C26.8117 26.75 23 31.0102 23 36.25V45.75C23 50.9898 26.8117 55.25 31.5 55.25H82.5C87.1883 55.25 91 50.9898 91 45.75V36.25C91 31.0102 87.1883 26.75 82.5 26.75H31.5ZM68.6875 44.5625C66.9211 44.5625 65.5 42.9742 65.5 41C65.5 39.0258 66.9211 37.4375 68.6875 37.4375C70.4539 37.4375 71.875 39.0258 71.875 41C71.875 42.9742 70.4539 44.5625 68.6875 44.5625ZM81.4375 41C81.4375 42.9742 80.0164 44.5625 78.25 44.5625C76.4836 44.5625 75.0625 42.9742 75.0625 41C75.0625 39.0258 76.4836 37.4375 78.25 37.4375C80.0164 37.4375 81.4375 39.0258 81.4375 41ZM31.5 64.75C26.8117 64.75 23 69.0102 23 74.25V83.75C23 88.9898 26.8117 93.25 31.5 93.25H82.5C87.1883 93.25 91 88.9898 91 83.75V74.25C91 69.0102 87.1883 64.75 82.5 64.75H31.5ZM68.6875 82.5625C66.9211 82.5625 65.5 80.9742 65.5 79C65.5 77.0258 66.9211 75.4375 68.6875 75.4375C70.4539 75.4375 71.875 77.0258 71.875 79C71.875 80.9742 70.4539 82.5625 68.6875 82.5625ZM82.5 79C82.5 80.9742 81.0789 82.5625 79.3125 82.5625C77.5461 82.5625 76.125 80.9742 76.125 79C76.125 77.0258 77.5461 75.4375 79.3125 75.4375C81.0789 75.4375 82.5 77.0258 82.5 79Z" fill="#5DA5E8"/>
</svg>
